<svg xmlns="http://www.w3.org/2000/svg" viewBox="0 0 1024 1024" aria-hidden="true" focusable="false">
  <path
    fill="currentColor"
    d="M793.7,313.4l35.8,590.5H194.5l35.8-590.5h114l6.2-7.1c-15.4-112.6,76.8-200.6,189.4-184.1,56.1,8.2,116.4,63.2,126.6,119.4,4.5,24.8-4.3,52.4,8.7,71.8h118.5ZM502.2,167c-73.2,5.4-122.4,69.7-109,142.1l230.9,2.2c19.8-79-40.2-150.4-121.9-144.4h0ZM391.3,429.7l-42.7-4.3-6.4-69.9-71.7-1.9-31.3,505.5h545.5l-31.9-498.1-5.9-6.2-69.6.8-6.4,69.8-42.7,4.3v-71.6h-237v71.6h.1Z"
  />
</svg>
